<?xml version="1.0" encoding="UTF-8"?>
<svg xmlns="http://www.w3.org/2000/svg" xmlns:xlink="http://www.w3.org/1999/xlink" viewBox="0 0 128 128" version="1.1">
    <path style="stroke:none;fill-rule:nonzero;fill:rgb(60.392157%,28.627451%,57.647059%);fill-opacity:1;" d="M 112.707031 40.128906 C 112.703125 38.253906 112.304688 36.597656 111.492188 35.175781 C 110.699219 33.78125 109.507812 32.609375 107.90625 31.683594 C 94.710938 24.074219 81.5 16.488281 68.304688 8.871094 C 64.75 6.816406 61.300781 6.890625 57.769531 8.972656 C 52.515625 12.070312 26.214844 27.140625 18.378906 31.679688 C 15.152344 33.546875 13.582031 36.40625 13.582031 40.125 C 13.574219 55.425781 13.582031 70.730469 13.574219 86.035156 C 13.574219 87.867188 13.960938 89.492188 14.734375 90.890625 C 15.53125 92.328125 16.738281 93.53125 18.375 94.480469 C 26.210938 99.019531 52.515625 114.085938 57.769531 117.183594 C 61.300781 119.269531 64.75 119.34375 68.308594 117.289062 C 81.5 109.671875 94.710938 102.085938 107.910156 94.476562 C 109.546875 93.527344 110.753906 92.324219 111.550781 90.886719 C 112.324219 89.488281 112.710938 87.863281 112.710938 86.03125 C 112.710938 86.03125 112.710938 55.429688 112.707031 40.128906"/>
    <path style="stroke:none;fill-rule:nonzero;fill:rgb(41.568627%,8.235294%,46.666667%);fill-opacity:1;" d="M 63.292969 62.929688 L 14.734375 90.890625 C 15.53125 92.328125 16.738281 93.53125 18.375 94.480469 C 26.210938 99.019531 52.515625 114.085938 57.769531 117.183594 C 61.300781 119.269531 64.75 119.34375 68.308594 117.289062 C 81.5 109.671875 94.710938 102.085938 107.910156 94.476562 C 109.546875 93.527344 110.753906 92.324219 111.550781 90.886719 Z M 63.292969 62.929688"/>
    <path style="stroke:none;fill-rule:nonzero;fill:rgb(50.588235%,18.823529%,51.764706%);fill-opacity:1;" d="M 112.707031 40.128906 C 112.703125 38.253906 112.304688 36.597656 111.492188 35.175781 L 63.292969 62.929688 L 111.550781 90.886719 C 112.324219 89.488281 112.710938 87.863281 112.710938 86.03125 C 112.710938 86.03125 112.710938 55.429688 112.707031 40.128906"/>
    <path style="stroke:none;fill-rule:nonzero;fill:rgb(100%,100%,100%);fill-opacity:1;" d="M 91.886719 52.476562 L 91.886719 57.703125 L 97.113281 57.703125 L 97.113281 52.476562 L 99.726562 52.476562 L 99.726562 57.703125 L 104.949219 57.703125 L 104.949219 60.316406 L 99.726562 60.316406 L 99.726562 65.542969 L 104.949219 65.542969 L 104.949219 68.15625 L 99.726562 68.15625 L 99.726562 73.382812 L 97.113281 73.382812 L 97.113281 68.15625 L 91.886719 68.15625 L 91.886719 73.382812 L 89.273438 73.382812 L 89.273438 68.15625 L 84.046875 68.15625 L 84.046875 65.542969 L 89.273438 65.542969 L 89.273438 60.316406 L 84.046875 60.316406 L 84.046875 57.703125 L 89.273438 57.703125 L 89.273438 52.476562 Z M 97.113281 60.316406 L 91.886719 60.316406 L 91.886719 65.542969 L 97.113281 65.542969 Z M 97.113281 60.316406"/>
    <path style="stroke:none;fill-rule:nonzero;fill:rgb(100%,100%,100%);fill-opacity:1;" d="M 63.402344 26.230469 C 77.03125 26.230469 88.933594 33.632812 95.308594 44.636719 L 95.246094 44.53125 L 79.207031 53.765625 C 76.046875 48.417969 70.253906 44.804688 63.609375 44.730469 L 63.402344 44.730469 C 53.269531 44.730469 45.050781 52.945312 45.050781 63.078125 C 45.050781 66.394531 45.9375 69.5 47.472656 72.183594 C 50.636719 77.703125 56.582031 81.429688 63.402344 81.429688 C 70.265625 81.429688 76.242188 77.65625 79.390625 72.074219 L 79.3125 72.210938 L 95.328125 81.488281 C 89.023438 92.398438 77.285156 99.777344 63.8125 99.925781 L 63.402344 99.925781 C 49.726562 99.925781 37.792969 92.480469 31.433594 81.417969 C 28.328125 76.015625 26.550781 69.753906 26.550781 63.078125 C 26.550781 42.726562 43.050781 26.230469 63.402344 26.230469 Z M 63.402344 26.230469"/>
</svg>
