<?xml version="1.0" encoding="UTF-8"?>
<svg xmlns="http://www.w3.org/2000/svg" xmlns:xlink="http://www.w3.org/1999/xlink" viewBox="0 0 128 128" version="1.1">
    <path style="stroke:none;fill-rule:nonzero;fill:rgb(60.392157%,28.627451%,57.647059%);fill-opacity:1;" d="M 113.609375 40.527344 C 113.605469 38.652344 113.207031 36.996094 112.394531 35.574219 C 111.601562 34.179688 110.410156 33.007812 108.808594 32.082031 C 95.613281 24.472656 82.402344 16.886719 69.207031 9.269531 C 65.652344 7.214844 62.203125 7.289062 58.671875 9.371094 C 53.417969 12.46875 27.117188 27.539062 19.28125 32.078125 C 16.054688 33.945312 14.484375 36.804688 14.484375 40.523438 C 14.476562 55.824219 14.484375 71.128906 14.476562 86.433594 C 14.476562 88.265625 14.863281 89.890625 15.636719 91.289062 C 16.433594 92.726562 17.640625 93.929688 19.277344 94.878906 C 27.113281 99.417969 53.417969 114.484375 58.671875 117.582031 C 62.203125 119.667969 65.652344 119.742188 69.210938 117.6875 C 82.402344 110.070312 95.613281 102.484375 108.8125 94.875 C 110.449219 93.925781 111.65625 92.722656 112.453125 91.285156 C 113.226562 89.886719 113.613281 88.261719 113.613281 86.429688 C 113.613281 86.429688 113.613281 55.828125 113.609375 40.527344"/>
    <path style="stroke:none;fill-rule:nonzero;fill:rgb(41.568627%,8.235294%,46.666667%);fill-opacity:1;" d="M 64.195312 63.328125 L 15.636719 91.289062 C 16.433594 92.726562 17.640625 93.929688 19.277344 94.878906 C 27.113281 99.417969 53.417969 114.484375 58.671875 117.582031 C 62.203125 119.667969 65.652344 119.742188 69.210938 117.6875 C 82.402344 110.070312 95.613281 102.484375 108.8125 94.875 C 110.449219 93.925781 111.65625 92.722656 112.453125 91.285156 Z M 64.195312 63.328125"/>
    <path style="stroke:none;fill-rule:nonzero;fill:rgb(50.588235%,18.823529%,51.764706%);fill-opacity:1;" d="M 113.609375 40.527344 C 113.605469 38.652344 113.207031 36.996094 112.394531 35.574219 L 64.195312 63.328125 L 112.453125 91.285156 C 113.226562 89.886719 113.613281 88.261719 113.613281 86.429688 C 113.613281 86.429688 113.613281 55.828125 113.609375 40.527344"/>
    <path style="stroke:none;fill-rule:nonzero;fill:rgb(100%,100%,100%);fill-opacity:1;" d="M 92.789062 52.875 L 92.789062 58.101562 L 98.015625 58.101562 L 98.015625 52.875 L 100.628906 52.875 L 100.628906 58.101562 L 105.851562 58.101562 L 105.851562 60.714844 L 100.628906 60.714844 L 100.628906 65.941406 L 105.851562 65.941406 L 105.851562 68.554688 L 100.628906 68.554688 L 100.628906 73.78125 L 98.015625 73.78125 L 98.015625 68.554688 L 92.789062 68.554688 L 92.789062 73.78125 L 90.175781 73.78125 L 90.175781 68.554688 L 84.949219 68.554688 L 84.949219 65.941406 L 90.175781 65.941406 L 90.175781 60.714844 L 84.949219 60.714844 L 84.949219 58.101562 L 90.175781 58.101562 L 90.175781 52.875 Z M 98.015625 60.714844 L 92.789062 60.714844 L 92.789062 65.941406 L 98.015625 65.941406 Z M 98.015625 60.714844"/>
    <path style="stroke:none;fill-rule:nonzero;fill:rgb(100%,100%,100%);fill-opacity:1;" d="M 64.304688 26.628906 C 77.933594 26.628906 89.835938 34.03125 96.210938 45.035156 L 96.148438 44.929688 L 80.109375 54.164062 C 76.949219 48.816406 71.15625 45.203125 64.511719 45.128906 L 64.304688 45.128906 C 54.171875 45.128906 45.953125 53.34375 45.953125 63.476562 C 45.953125 66.792969 46.839844 69.898438 48.375 72.582031 C 51.539062 78.101562 57.484375 81.828125 64.304688 81.828125 C 71.167969 81.828125 77.144531 78.054688 80.292969 72.472656 L 80.214844 72.609375 L 96.230469 81.886719 C 89.925781 92.796875 78.1875 100.175781 64.714844 100.324219 L 64.304688 100.324219 C 50.628906 100.324219 38.695312 92.878906 32.335938 81.816406 C 29.230469 76.414062 27.453125 70.152344 27.453125 63.476562 C 27.453125 43.125 43.953125 26.628906 64.304688 26.628906 Z M 64.304688 26.628906"/>
</svg>