<svg viewBox="-9 -8 144 144">
    <path style=" stroke:none;fill-rule:nonzero;fill:rgb(60.392157%,28.627451%,57.647059%);fill-opacity:1;" d="M 120.34375 37.839844 C 120.34375 35.722656 119.894531 33.8125 118.957031 32.21875 C 118.054688 30.621094 116.699219 29.300781 114.894531 28.257812 C 99.898438 19.613281 84.863281 10.96875 69.867188 2.324219 C 65.804688 0 61.917969 0.0703125 57.890625 2.429688 C 51.917969 5.9375 21.992188 23.085938 13.105469 28.257812 C 9.425781 30.378906 7.65625 33.640625 7.65625 37.875 L 7.65625 90.089844 C 7.65625 92.171875 8.105469 94.011719 8.972656 95.609375 C 9.875 97.242188 11.265625 98.628906 13.105469 99.707031 C 22.027344 104.878906 51.917969 121.996094 57.890625 125.535156 C 61.917969 127.894531 65.839844 128 69.867188 125.640625 C 84.863281 116.960938 99.898438 108.351562 114.894531 99.707031 C 116.769531 98.628906 118.125 97.277344 119.027344 95.609375 C 119.894531 94.011719 120.34375 92.171875 120.34375 90.089844 Z M 120.34375 37.839844 "/>
    <path style=" stroke:none;fill-rule:nonzero;fill:rgb(41.568627%,8.235294%,46.666667%);fill-opacity:1;" d="M 64.140625 63.773438 L 8.90625 95.574219 C 9.808594 97.207031 11.195312 98.59375 13.035156 99.671875 C 21.957031 104.84375 51.847656 121.960938 57.820312 125.5 C 61.847656 127.863281 65.769531 127.964844 69.796875 125.605469 C 84.796875 116.925781 99.828125 108.316406 114.824219 99.671875 C 116.699219 98.59375 118.054688 97.242188 118.957031 95.574219 Z M 64.140625 63.773438 "/>
    <path style=" stroke:none;fill-rule:nonzero;fill:rgb(41.568627%,8.235294%,46.666667%);fill-opacity:1;" d="M 47.789062 73.183594 C 51.015625 78.808594 57.054688 82.589844 63.964844 82.589844 C 70.941406 82.589844 77.019531 78.773438 80.210938 73.078125 L 64.140625 63.773438 Z M 47.789062 73.183594 "/>
    <path style=" stroke:none;fill-rule:nonzero;fill:rgb(50.588235%,18.823529%,51.764706%);fill-opacity:1;" d="M 120.34375 37.839844 C 120.34375 35.722656 119.894531 33.8125 118.957031 32.21875 L 64.140625 63.773438 L 119.027344 95.574219 C 119.894531 93.976562 120.34375 92.136719 120.34375 90.054688 Z M 120.34375 37.839844 "/>
    <path style=" stroke:none;fill-rule:nonzero;fill:rgb(100%,100%,100%);fill-opacity:1;" d="M 80.210938 73.078125 C 77.019531 78.738281 70.945312 82.589844 63.964844 82.589844 C 57.023438 82.589844 50.980469 78.808594 47.789062 73.183594 C 46.226562 70.441406 45.324219 67.316406 45.324219 63.949219 C 45.324219 53.636719 53.65625 45.304688 63.964844 45.304688 C 70.839844 45.304688 76.84375 49.054688 80.074219 54.609375 L 96.355469 45.234375 C 89.863281 34.058594 77.78125 26.523438 63.929688 26.523438 C 43.238281 26.523438 26.507812 43.292969 26.507812 63.949219 C 26.507812 70.71875 28.3125 77.105469 31.46875 82.589844 C 37.929688 93.804688 50.078125 101.371094 63.964844 101.371094 C 77.886719 101.371094 90.039062 93.769531 96.496094 82.488281 Z M 100.800781 55.09375 L 97.085938 55.09375 L 97.085938 73.042969 L 100.800781 73.042969 Z M 109.027344 55.09375 L 105.3125 55.09375 L 105.3125 73.042969 L 109.027344 73.042969 Z M 109.027344 55.09375 "/>
    <path style=" stroke:none;fill-rule:nonzero;fill:rgb(100%,100%,100%);fill-opacity:1;" d="M 112.046875 58.117188 L 94.097656 58.117188 L 94.097656 61.832031 L 112.046875 61.832031 Z M 112.046875 66.308594 L 94.097656 66.308594 L 94.097656 70.023438 L 112.046875 70.023438 Z M 112.046875 66.308594 "/>
</svg>
