<?xml version="1.0" encoding="UTF-8"?>
<svg xmlns="http://www.w3.org/2000/svg" xmlns:xlink="http://www.w3.org/1999/xlink" viewBox="0 0 128 128" version="1.1">
    <path style="stroke:none;fill-rule:evenodd;fill:rgb(0%,0%,0%);fill-opacity:1;" d="M 63.210938 7.464844 C 63.003906 7.582031 62.144531 8.816406 61.296875 10.207031 C 59.171875 13.695312 59.148438 13.699219 56.289062 10.691406 C 54.433594 8.738281 53.984375 8.378906 53.382812 8.382812 C 52.996094 8.386719 52.503906 8.519531 52.292969 8.679688 C 52.078125 8.835938 51.480469 10.105469 50.960938 11.5 C 49.765625 14.6875 49.710938 14.789062 49.050781 14.917969 C 48.640625 14.992188 47.859375 14.558594 45.980469 13.207031 C 44.59375 12.210938 43.234375 11.398438 42.960938 11.398438 C 41.816406 11.398438 41.492188 12.023438 40.949219 15.292969 C 40.257812 19.457031 40.28125 19.441406 36.53125 17.738281 C 35.015625 17.050781 33.578125 16.488281 33.335938 16.488281 C 33.09375 16.488281 32.636719 16.75 32.320312 17.066406 C 31.742188 17.644531 31.742188 17.648438 31.898438 20.828125 L 32.054688 24.011719 L 31.453125 24.335938 C 30.921875 24.621094 30.554688 24.585938 28.191406 24.027344 C 25.105469 23.300781 24.457031 23.320312 23.832031 24.160156 L 23.375 24.773438 L 23.988281 27.398438 C 24.324219 28.84375 24.648438 30.234375 24.707031 30.488281 C 24.769531 30.742188 24.664062 31.148438 24.476562 31.390625 C 24.171875 31.789062 23.84375 31.824219 20.988281 31.78125 C 16.160156 31.707031 15.882812 32.121094 17.878906 36.476562 C 18.515625 37.859375 19.035156 39.117188 19.035156 39.265625 C 19.035156 40.0625 18.398438 40.351562 15.671875 40.796875 C 14.148438 41.046875 12.824219 41.25 12.726562 41.25 C 12.632812 41.25 12.34375 41.457031 12.089844 41.710938 C 11.261719 42.542969 11.496094 43.320312 13.378906 45.976562 C 15.722656 49.285156 15.71875 49.296875 11.847656 50.777344 C 7.441406 52.464844 7.351562 52.878906 10.707031 56.058594 C 13.828125 59.019531 13.832031 58.976562 10.296875 61.199219 C 7.621094 62.882812 7.578125 62.921875 7.507812 63.835938 C 7.425781 64.945312 7.445312 64.964844 10.644531 66.917969 C 13.808594 68.847656 13.808594 68.90625 10.703125 71.84375 C 7.367188 75 7.46875 75.460938 11.875 77.125 C 15.726562 78.578125 15.730469 78.59375 13.382812 81.902344 C 12.050781 83.777344 11.628906 84.558594 11.628906 85.136719 C 11.628906 86.222656 12.191406 86.5 15.5625 87.066406 C 18.402344 87.542969 19.035156 87.824219 19.035156 88.609375 C 19.035156 88.769531 18.511719 90.035156 17.875 91.421875 C 15.894531 95.734375 16.121094 96.09375 20.808594 96.09375 C 25.175781 96.09375 25.058594 95.960938 24.121094 99.898438 C 23.410156 102.867188 23.398438 103.433594 24.042969 104.074219 C 24.53125 104.570312 25.457031 104.511719 28.355469 103.820312 C 30.570312 103.292969 30.957031 103.253906 31.46875 103.527344 L 32.054688 103.84375 L 31.898438 107.027344 C 31.742188 110.210938 31.742188 110.210938 32.320312 110.789062 C 32.636719 111.105469 33.101562 111.367188 33.351562 111.367188 C 33.601562 111.367188 35.039062 110.808594 36.542969 110.125 C 40.28125 108.425781 40.257812 108.410156 40.949219 112.558594 C 41.496094 115.847656 41.816406 116.457031 42.980469 116.457031 C 43.273438 116.457031 44.601562 115.675781 45.941406 114.722656 C 48.292969 113.046875 48.902344 112.78125 49.527344 113.179688 C 49.6875 113.285156 50.316406 114.660156 50.921875 116.242188 C 51.808594 118.566406 52.132812 119.171875 52.628906 119.410156 C 53.570312 119.859375 54.152344 119.5 56.367188 117.089844 C 59.039062 114.179688 59.148438 114.191406 61.328125 117.726562 C 63.738281 121.628906 64.359375 121.621094 66.832031 117.648438 C 68.960938 114.226562 68.933594 114.226562 71.8125 117.230469 C 73.722656 119.226562 74.128906 119.542969 74.773438 119.542969 C 75.183594 119.542969 75.675781 119.390625 75.863281 119.199219 C 76.050781 119.011719 76.675781 117.617188 77.25 116.105469 C 77.824219 114.589844 78.421875 113.269531 78.574219 113.171875 C 79.183594 112.785156 79.816406 113.054688 82.160156 114.722656 C 83.542969 115.703125 84.84375 116.457031 85.152344 116.457031 C 86.300781 116.457031 86.714844 115.644531 87.191406 112.441406 C 87.601562 109.710938 87.683594 109.449219 88.21875 109.175781 C 88.75 108.910156 89.066406 109 91.542969 110.125 C 93.050781 110.808594 94.484375 111.367188 94.734375 111.367188 C 94.984375 111.367188 95.457031 111.101562 95.785156 110.773438 L 96.378906 110.175781 L 96.214844 107.125 C 96.058594 104.207031 96.074219 104.050781 96.539062 103.632812 C 97.015625 103.199219 97.066406 103.199219 99.742188 103.8125 C 102.980469 104.550781 103.585938 104.570312 104.191406 103.960938 C 104.789062 103.367188 104.78125 103.238281 103.96875 99.804688 C 103.054688 95.957031 102.933594 96.09375 107.316406 96.09375 C 110.304688 96.09375 110.636719 96.050781 111.019531 95.632812 C 111.65625 94.929688 111.503906 94.125 110.226562 91.398438 C 109.578125 90.023438 109.054688 88.777344 109.058594 88.621094 C 109.082031 87.8125 109.71875 87.535156 112.660156 87.054688 C 114.460938 86.765625 115.808594 86.425781 116.054688 86.207031 C 116.871094 85.46875 116.570312 84.507812 114.703125 81.886719 C 112.363281 78.609375 112.375 78.578125 116.121094 77.195312 C 120.609375 75.542969 120.734375 74.992188 117.378906 71.800781 C 114.269531 68.847656 114.265625 68.863281 117.671875 66.773438 C 121.789062 64.242188 121.796875 63.675781 117.746094 61.160156 C 114.261719 59 114.265625 59.027344 117.386719 56.0625 C 120.738281 52.878906 120.644531 52.464844 116.242188 50.777344 C 112.351562 49.292969 112.339844 49.253906 114.703125 46.011719 C 116.109375 44.082031 116.457031 43.441406 116.457031 42.777344 C 116.457031 41.621094 115.941406 41.363281 112.53125 40.8125 C 109.679688 40.351562 109.054688 40.074219 109.054688 39.261719 C 109.054688 39.109375 109.574219 37.867188 110.210938 36.503906 C 111.457031 33.835938 111.632812 32.765625 110.925781 32.128906 C 110.546875 31.785156 110.039062 31.738281 107.324219 31.78125 C 104.480469 31.828125 104.117188 31.789062 103.722656 31.390625 C 103.292969 30.960938 103.296875 30.898438 103.972656 28.09375 C 104.796875 24.652344 104.796875 24.570312 104.121094 23.933594 C 103.433594 23.289062 103.003906 23.296875 99.84375 24.042969 C 97.542969 24.582031 97.164062 24.621094 96.640625 24.339844 L 96.046875 24.023438 L 96.210938 20.847656 L 96.375 17.675781 L 95.78125 17.082031 C 95.457031 16.753906 94.992188 16.488281 94.753906 16.488281 C 94.511719 16.488281 93.085938 17.054688 91.578125 17.746094 C 89.0625 18.90625 88.792969 18.980469 88.25 18.699219 C 87.707031 18.414062 87.617188 18.132812 87.15625 15.304688 C 86.621094 12.035156 86.289062 11.398438 85.128906 11.398438 C 84.851562 11.398438 83.488281 12.214844 82.09375 13.21875 C 79.804688 14.863281 79.496094 15.015625 78.925781 14.820312 C 78.453125 14.652344 78.179688 14.292969 77.84375 13.402344 C 77.597656 12.746094 77.121094 11.476562 76.785156 10.585938 C 76.113281 8.789062 75.734375 8.386719 74.726562 8.386719 C 74.160156 8.386719 73.648438 8.792969 71.820312 10.695312 C 68.941406 13.683594 68.929688 13.683594 66.8125 10.210938 C 65.96875 8.824219 65.082031 7.585938 64.847656 7.460938 C 64.320312 7.175781 63.695312 7.179688 63.210938 7.464844 M 65.832031 17.914062 C 68.339844 19.699219 67.003906 23.894531 63.933594 23.894531 C 60.949219 23.894531 59.445312 20.300781 61.578125 18.257812 C 62.777344 17.109375 64.503906 16.96875 65.832031 17.914062 M 62.679688 28.996094 C 64.324219 29.617188 64.996094 29.242188 68.75 25.628906 L 71.570312 22.910156 L 72.761719 23.066406 C 76.503906 23.5625 83.949219 26.832031 88.226562 29.859375 C 92.15625 32.640625 97.378906 38.304688 99.605469 42.199219 L 100.082031 43.035156 L 97.972656 47.785156 C 96.8125 50.398438 95.863281 52.8125 95.863281 53.148438 C 95.863281 53.925781 96.371094 55.15625 96.863281 55.5625 C 97.070312 55.734375 99.039062 56.683594 101.238281 57.667969 L 105.234375 59.464844 L 105.390625 60.480469 C 105.59375 61.804688 105.621094 65.058594 105.4375 65.980469 L 105.292969 66.703125 L 103.011719 66.703125 C 100.367188 66.703125 100.570312 66.46875 100.425781 69.714844 C 100.324219 72.066406 99.753906 73.367188 98.460938 74.207031 C 96.355469 75.582031 92.875 75.332031 91.402344 73.703125 C 91.175781 73.453125 90.734375 72.191406 90.421875 70.902344 C 89.507812 67.136719 88.28125 65.019531 85.820312 62.964844 C 85.042969 62.3125 84.40625 61.707031 84.40625 61.613281 C 84.40625 61.523438 85.261719 60.804688 86.308594 60.015625 C 90.117188 57.148438 92.304688 53.804688 92.546875 50.496094 C 93.003906 44.183594 87.976562 38.300781 80.496094 36.394531 C 78.722656 35.941406 77.964844 35.925781 56.023438 35.925781 C 43.570312 35.925781 33.382812 35.84375 33.382812 35.746094 C 33.382812 35.511719 36.148438 32.828125 37.777344 31.480469 C 42.253906 27.777344 48.070312 24.867188 54.09375 23.3125 L 56.175781 22.773438 L 59.136719 25.773438 C 60.761719 27.421875 62.359375 28.871094 62.679688 28.996094 M 25.417969 48.300781 C 26.78125 49.191406 27.339844 51.433594 26.535156 52.785156 C 25.289062 54.871094 22.136719 54.957031 20.890625 52.941406 C 19.078125 50.011719 22.566406 46.429688 25.417969 48.300781 M 105.742188 48.414062 C 109.308594 50.589844 106.546875 55.9375 102.726562 54.25 C 100.179688 53.121094 100.097656 49.636719 102.589844 48.367188 C 103.628906 47.835938 104.824219 47.855469 105.742188 48.414062 M 35.925781 61.730469 L 35.925781 75.035156 L 24.164062 75.035156 L 23.699219 73.011719 C 22.78125 69.023438 22.394531 64.898438 22.625 61.523438 L 22.785156 59.148438 L 26.832031 57.335938 C 29.367188 56.199219 31 55.332031 31.210938 55.007812 C 32.128906 53.605469 32.042969 52.605469 30.75 49.753906 L 30.148438 48.421875 L 35.925781 48.421875 L 35.925781 61.730469 M 69.792969 49.003906 C 72.3125 49.65625 73.640625 50.992188 73.644531 52.859375 C 73.648438 54.230469 72.96875 55.09375 71.28125 55.855469 C 70.085938 56.394531 69.898438 56.40625 62.367188 56.480469 L 54.671875 56.554688 L 54.671875 48.652344 L 61.566406 48.652344 C 66.949219 48.652344 68.75 48.730469 69.792969 49.003906 M 67.195312 68.097656 C 68.441406 68.441406 69.917969 69.527344 70.675781 70.65625 C 71.46875 71.839844 71.9375 73.378906 73.039062 78.484375 C 73.96875 82.796875 74.566406 84.207031 76.246094 86.039062 C 78.320312 88.3125 77.839844 88.226562 88.21875 88.226562 C 93.1875 88.226562 97.25 88.304688 97.25 88.402344 C 97.25 88.578125 93.828125 92.625 93.679688 92.625 C 93.636719 92.625 91.851562 92.25 89.707031 91.792969 C 83.660156 90.5 83.441406 90.652344 82.050781 97.132812 L 81.160156 101.300781 L 80.355469 101.695312 C 79.007812 102.359375 74.636719 103.726562 72.371094 104.195312 C 68.625 104.964844 64.550781 105.226562 60.96875 104.921875 C 54.863281 104.40625 46.777344 102.035156 46.460938 100.667969 C 46.394531 100.378906 45.988281 98.503906 45.558594 96.503906 C 45.128906 94.5 44.609375 92.601562 44.398438 92.28125 C 43.398438 90.753906 42.34375 90.660156 37.714844 91.6875 C 35.960938 92.074219 34.429688 92.390625 34.3125 92.390625 C 34.089844 92.390625 30.835938 88.628906 30.835938 88.375 C 30.835938 88.292969 38.566406 88.203125 48.019531 88.167969 L 65.199219 88.109375 L 65.261719 82.007812 C 65.304688 77.695312 65.246094 75.808594 65.058594 75.585938 C 64.851562 75.332031 63.742188 75.265625 59.734375 75.265625 L 54.671875 75.265625 L 54.671875 67.863281 L 60.515625 67.863281 C 63.726562 67.863281 66.734375 67.96875 67.195312 68.097656 M 40.71875 95.855469 C 43.449219 97.519531 42.140625 101.882812 38.90625 101.878906 C 35.59375 101.875 34.367188 97.554688 37.1875 95.832031 C 38.125 95.261719 39.765625 95.273438 40.71875 95.855469 M 90.753906 96.035156 C 92.089844 97.015625 92.539062 99.058594 91.707031 100.421875 C 89.527344 103.996094 84.078125 101.152344 85.898438 97.394531 C 86.792969 95.546875 89.171875 94.878906 90.753906 96.035156"/>
</svg>
